<svg xmlns="http://www.w3.org/2000/svg"  viewBox="0 0 48 48" width="48px" height="48px"><path fill="#6c19ff" d="M9,11h36v27c0,2.209-1.791,4-4,4H9V11z"/><path fill="#3dd9eb" d="M41,42H7c-2.209,0-4-1.791-4-4V6h34v32C37,40.209,38.791,42,41,42z"/><path fill="#00b3d7" d="M3,38V11h34v27c0,2.209,1.791,4,4,4H7C4.791,42,3,40.209,3,38z"/><rect width="26" height="7" x="7" y="15" fill="#3dd9eb"/><rect width="11" height="4" x="7" y="26" fill="#3dd9eb"/><rect width="11" height="4" x="7" y="34" fill="#3dd9eb"/><rect width="11" height="4" x="22" y="26" fill="#3dd9eb"/><rect width="11" height="4" x="22" y="34" fill="#3dd9eb"/></svg>